<svg xmlns="http://www.w3.org/2000/svg" xml:space="preserve" width="2000" height="560" data-id="lg_EE8GuYoxFLNBuNMxuW" data-version="1" viewBox="0 0 2000 560"><g data-padding="20"><g transform="translate(10 13.333)scale(.95238)"><g transform="matrix(7 0 0 7 400 400)"><linearGradient id="a" x1="0" x2="1" y1="0" y2="0" gradientUnits="objectBoundingBox"><stop offset="0%" stop-color="#ffa62e"/><stop offset="100%" stop-color="#f71b3d"/></linearGradient><path fill="url(#a)" d="M171.357 72.857h-60v-50c0-16.569 13.431-30 30-30s30 13.431 30 30Z" transform="translate(-50 -50)"/></g><rect width="194.437" height="157.635" x="542.281" y="-198.817" fill="none" rx="0" ry="0" transform="translate(399.87 568.5)"/><path fill="#fff" d="M962.31 433.61q2.97-.18 5.7-1.55 2.72-1.38 4.37-4.01 1.72-2.75 1.72-6.63v-.41q-.11-4.13-3.15-6.33-1.39-1.03-3.37-1.61-3.88-1.06-7.92-1.5-4.05-.44-7.68-2.2-3.26-1.54-4.87-4.52-1.61-2.99-1.61-6.5 0-6.89 4.8-11.25 4.91-4.54 12.38-4.54h1.1q8.16.37 13.87 4.07l-.87 7.69q-.08.66-.7.66h-.15q-.47-.04-.91-1.03-1.58-3.29-4.58-5.62t-6.48-2.47h-.59q-3.37 0-6 1.21-1.72.88-2.75 1.94-.95 1.02-1.68 2.52-.59 1.21-.92 2.82-.26 1.18-.26 2.24 0 1.43.44 2.63.77 2.46 2.64 3.78 1.43 1.06 3.11 1.46.92.26 2.24.5 1.31.23 2.74.45 2.09.33 4.42.68 2.32.35 4.52 1.01 3.66 1.17 5.46 3.11 1.31 1.5 2.16 3.3.98 2.41.98 5.31 0 7.83-6.37 13.03-3.29 2.71-7.29 4-3.22 1.02-6.88 1.17-.81.03-1.57.03-5.09 0-9.75-1.42l-3.47-9.67q-.08-.18-.08-.37 0-.36.26-.73.29-.48.77-.48.44.11.91 1.07 2.35 5.09 5.9 6.81 2.93 1.43 7.43 1.43.96 0 1.98-.08m33.03-27.07v23.73q0 2.38 1.83 3.02t1.83 1.56q0 .77-.73.77h-12.41q-.77 0-.77-.77 0-.92 1.83-1.56t1.83-3.02v-40.69q0-2.34-1.83-3t-1.83-1.61q0-.77.77-.77 2.41-.11 4.78-.73 2.36-.62 4.7-1.43v22.34q2.02-.77 3.55-1.36 1.54-.58 2.93-1.06 3.37-1.17 7-1.54.44-.03.91-.03 3.08 0 5.86 2.08 4.44 3.41 4.44 14.62v13.18q0 2.38 1.83 3.02t1.83 1.56q0 .77-.73.77h-8.9q-.63 0-.63-.48v-18.05q0-8.02-3.33-11.28-2.12-2.09-5.2-2.09-1.76 0-3.84.69-.81.3-2.04.76-1.22.45-2.1.78t-1.58.59m51.97-5.93h.11q7.14.29 12.08 5.51 4.95 5.22 5.06 12.47v.22q0 7.32-5.17 12.38-5.27 5.12-12.85 5.34h-.59q-7.03 0-12.12-5.2-5.27-5.35-5.27-12.63v-.11q.03-8.02 6.04-13.48.7-.66 2.07-1.13 1.37-.48 4.08-1.47 1.61-.59 3.56-1.28 1.83-.62 3-.62m-.66 2.45h-.44q-4.29 0-7.36 4.14-3.26 4.39-3.26 10.8t3.2 11.12q3.21 4.7 7.79 4.92h.51q4.25 0 7.32-4.14 3.23-4.35 3.23-10.76t-3.23-11.12q-3.22-4.7-7.76-4.96m22.78 12.38q1.02-6.78 5.4-10.84 4.38-4.07 11.52-4.14h.14q7.22 0 11.03 4.1 3.8 4.18 3.8 10.88-.03 1.46-.11 2.07-.07.6-1.5.6h-23.32q.11 5.93 3 9.83t7.29 4.78q1.28.3 2.6.3 3.47 0 7.21-2.02 2.09-1.13 2.82-1.13.18 0 .29.07.11.11.11.33 0 .48-.47 1.35-.44.88-.72 1.18-.27.29-.49.51-3.99 3.44-10.84 3.44-9.6-.07-14.39-6.15-3.7-4.69-3.7-11.13 0-1.94.33-4.03m6.96 0h19.29q0-4.47-2.01-8.21-1.94-3.55-7.1-3.55h-.41q-5.16.15-7.39 3.74-2.24 3.59-2.38 8.02m45.15-14.91q5.38.3 10.18 3.26l-.77 6.41q-.07.55-.59.55h-.11q-.43-.04-.8-.88-1.32-2.75-3.85-4.59-2.52-1.85-5.45-1.96h-.15q-2.27 0-4.43 1.13-2.27 1.17-2.78 3.59-.19.81-.19 1.47 0 2.3 2.05 3.29 2.6 1.32 6.05 2.09 4.72 1.06 8.58 2.86 3.87 1.79 4.23 7.5v.37q0 2.71-2.08 5.42-2.27 2.93-6.56 4.43-2.67.88-5.93.99h-.99q-4.5 0-8.61-1.17l-2.96-8.06.11-.73q.03-.55.66-.55h.07q.37.07.77.88 1.68 3.62 4.12 5.14 2.43 1.52 6.17 1.63h.44q2.6 0 5.71-1.21 3.37-1.31 3.52-4.76v-.22q0-3.95-3.74-5.01-3.88-1.1-6.81-1.94-3.62-.99-6.81-3.15-3.15-2.13-3.15-6.3v-.19q.04-5.67 4.39-8.09 4-2.23 8.83-2.23.44 0 .88.03M966.9 462.47l.04 42.59h15.63q3.41 0 5.77-2.62t3.57-4.08q.66-.81 1.03-.81.77 0 .77.77 0 .48-.08.77l-2.67 9.41h-33.55q-.77 0-.77-.77 0-.91 1.84-1.55 1.83-.65 1.83-3.03v-40.68q0-2.35-1.83-3-1.84-.66-1.84-1.62 0-.76.77-.76h12.42q.73 0 .73.76 0 .96-1.83 1.62-1.83.65-1.83 3m59.07 45.57v-2.71l-10.07 3.69q-1.17.41-1.94.41h-1.5q-5.21-.26-8.98-4.25t-4.28-9.82q-.15-1.53-.15-2.96 0-1.91.26-3.7.44-3.11 2.42-6.23.95-1.61 3.25-3.37.81-.54 1.8-.98 2.93-1.1 5.88-2.2 2.94-1.1 5.91-2.2.62-.22 1.17-.22h.19q2.34.11 5.67 1.17.29.11.37.15.8.33 1.98.73.47.15.87.15.59 0 1.03-.33.77-.66 1.1-1.1.18-.26.47-.26.19 0 .37.08.81.29.81.73v28.34q0 2.38 1.83 3.03 1.83.64 1.83 1.55 0 .77-.77.77h-8.9q-.62 0-.62-.47m0-4.88v-22.81q-1.5-1.39-3.96-2.58-2.45-1.19-4.35-1.27h-.15q-.73 0-1.47.3-1.31.47-2.61.97-1.3.49-2.62.97-.92.36-1.47.95-2.27 2.42-3.04 5.86-.62 2.6-.62 5.16 0 .81.07 1.65.41 5.27 2.86 8.57 2.45 3.41 6.15 4.43 1.39.4 2.82.4.44 0 .92-.03.8-.08 1.9-.48.84-.29 2.64-.97 1.79-.68 2.93-1.12m26.37-30.99v5.09q2.01-.77 3.55-1.35 1.54-.59 2.93-1.06 3.37-1.18 6.99-1.54.44-.04.92-.04 3.07 0 5.86 2.09 4.43 3.4 4.43 14.61v13.18q0 2.38 1.83 3.03 1.83.64 1.83 1.55 0 .77-.73.77h-8.9q-.62 0-.62-.47v-18.06q0-8.02-3.34-11.28-2.12-2.09-5.2-2.09-1.75 0-3.84.7-.81.29-2.03.75l-2.11.79q-.88.33-1.57.58v23.73q0 2.38 1.83 3.03 1.83.64 1.83 1.55 0 .77-.73.77h-12.42q-.77 0-.77-.77 0-.91 1.83-1.55 1.83-.65 1.83-3.03v-23.43q0-2.31-1.83-2.97t-1.83-1.61q0-.77.77-.77 2.42-.11 4.78-.75t4.71-1.45m60.27 35.86v-2.71l-10.07 3.69q-1.17.41-1.94.41h-1.5q-5.2-.26-8.97-4.25t-4.29-9.82q-.14-1.53-.14-2.96 0-1.91.25-3.7.44-3.11 2.42-6.23.95-1.61 3.26-3.37.81-.54 1.79-.98 2.93-1.1 5.88-2.2t5.92-2.2q.62-.22 1.17-.22h.18q2.34.11 5.68 1.17.29.11.36.15v-12.34q0-2.35-1.83-3-1.83-.66-1.83-1.62 0-.76.77-.76 2.42-.11 4.78-.74 2.36-.62 4.74-1.43v48.23q0 2.38 1.83 3.03 1.83.64 1.83 1.55 0 .77-.76.77h-8.9q-.63 0-.63-.47m0-4.88V480.3q-1.64-1.5-4.04-2.62-2.4-1.11-4.27-1.19h-.15q-.73 0-1.46.3-1.32.47-2.62.97-1.3.49-2.62.97-.91.36-1.46.95-2.27 2.42-3.04 5.86-.62 2.6-.62 5.16 0 .81.07 1.65.4 5.27 2.86 8.57 2.45 3.41 6.15 4.43 1.39.4 2.82.4.44 0 .91-.03.81-.08 1.91-.48.84-.29 2.63-.97 1.8-.68 2.93-1.12"/><path fill="none" stroke="#fff" stroke-width="10.05" d="M1043.24 71.267a133.463 133.463 0 1 0 0 266.926 133.463 133.463 0 1 0 0-266.926Z" paint-order="stroke"/><rect width="134.579" height="151.42" x="572.211" y="-195.71" fill="none" rx="0" ry="0" transform="translate(399.87 331.28)"/><path fill="#fff" d="m981.45 250.43.81-8.04h.8q5.23 4.55 11.79 7.1 6.57 2.54 13 2.54 9.11 0 14.74-5.02 5.63-5.03 5.63-13.47 0-4.69-2.08-8.71t-6.83-8.17q-4.76-4.16-13.07-8.98-5.76-3.35-10.99-7.03-5.22-3.69-8.57-8.58t-3.35-11.73q0-10.18 7.37-16.41t19.43-6.23q5.36 0 11.52 1.14 6.17 1.14 9.52 2.88l-.67 7.5h-.81q-7.64-8.31-19.56-8.31-8.58 0-13.8 4.36-5.23 4.35-5.23 11.72 0 5.5 2.88 9.45t7.44 7.1q4.55 3.15 9.78 6.1 6.03 3.48 11.73 7.37 5.69 3.89 9.38 9.31 3.68 5.43 3.68 13.6 0 7.51-3.48 13.2-3.49 5.7-9.85 8.91-6.37 3.22-14.81 3.22-5.36 0-12.6-1.34-7.23-1.34-13.8-3.48m80.94 2.94v-93.8h9.11v91.12q2.55 0 8.04-.8l22.24-3.35v6.83Z"/></g><path fill="transparent" stroke="transparent" d="M790 0h420v560H790z"/></g></svg>